# xmcd
#
# Track frame offsets: 
#        150
#        15325
#        35354
#        62481
#        87586
#        103077
#        120390
#        140565
#        154467
#        172604
#        187828
#        215460
#        236692
#        256441
#        287728
#
# Disc length: 4309 seconds
#
# Revision: 1
# Processed by: cddbd v1.5.2PL0 Copyright (c) Steve Scherf et al.
# Submitted via: ExactAudioCopy v1.0b3
#
DISCID=c710d30f
DTITLE=Various Artist - Modern CD001  Miles Davis 1953-54
DYEAR=1953
DGENRE=Jazz
TTITLE0=Miles Davis All-Stars - Tasty Pudding
TTITLE1=Miles Davis All-Stars - Willie The Wailer
TTITLE2=Miles Davis All-Stars - Floppy
TTITLE3=Miles Davis All-Stars - For Adults Only
TTITLE4=Miles Davis Quartet - When Lights Are Low
TTITLE5=Miles Davis Quartet - Tune Up
TTITLE6=Miles Davis Quartet - Miles Ahead
TTITLE7=Miles Davis Quartet - Smooch
TTITLE8=Miles Davis Quartet - Four
TTITLE9=Miles Davis Quartet - Old Devil Moon
TTITLE10=Miles Davis Quartet - Blue Haze
TTITLE11=Miles Davis Quintet - Solar
TTITLE12=Miles Davis Quintet - You Don't Know What Love Is
TTITLE13=Miles Davis Quintet - Love Me Or Leave Me
TTITLE14=Miles Davis Quintet - I'll Remember April
EXTD=YEAR: 2008
EXTT0=
EXTT1=
EXTT2=
EXTT3=
EXTT4=
EXTT5=
EXTT6=
EXTT7=
EXTT8=
EXTT9=
EXTT10=
EXTT11=
EXTT12=
EXTT13=
EXTT14=
PLAYORDER=
